<?xml version="1.0" encoding="UTF-8" standalone="no"?>
<!DOCTYPE svg PUBLIC "-//W3C//DTD SVG 1.1//EN" "http://www.w3.org/Graphics/SVG/1.1/DTD/svg11.dtd">
<svg width="100%" height="100%" viewBox="0 0 2267 769" version="1.1" xmlns="http://www.w3.org/2000/svg" xmlns:xlink="http://www.w3.org/1999/xlink" xml:space="preserve" xmlns:serif="http://www.serif.com/" style="fill-rule:evenodd;clip-rule:evenodd;stroke-linejoin:round;stroke-miterlimit:2;">
    <g transform="matrix(1,0,0,1,-4934.992209,-3122.319299)">
        <g transform="matrix(1,0,0,1,0,1990.323097)">
            <g transform="matrix(1,0,0,1,368.100272,53.669182)">
                <g transform="matrix(4.258694,0,0,4.258694,-17368.805126,-5388.378417)">
                    <g transform="matrix(0.617169,0,0,0.617169,1881.602753,874.253489)">
                        <g transform="matrix(66.949018,0,0,66.949018,5900.571336,1093.124914)">
                        </g>
                        <text x="5661.15px" y="1093.125px" style="font-family:'Averta-Regular';font-size:66.949px;fill:rgb(235,180,102);">Mét<tspan x="5779.782px " y="1093.125px ">o</tspan>do</text>
                    </g>
                    <g transform="matrix(1.41152,0,0,1.41152,-2661.438205,71.617644)">
                        <path d="M5659.816,1093.125L5679.905,1043.956L5688.404,1043.956L5708.423,1093.125L5697.746,1093.125L5694.375,1083.783L5673.864,1083.783L5670.492,1093.125L5659.816,1093.125ZM5682.363,1061.867L5677.095,1075.283L5691.143,1075.283L5685.875,1061.867C5685.173,1059.994 5684.588,1058.121 5684.119,1056.248C5683.651,1058.262 5683.066,1060.135 5682.363,1061.867Z" style="fill:rgb(235,235,235);fill-rule:nonzero;"/>
                        <g>
                            <path d="M5726.264,1113.727C5722.565,1113.727 5719.275,1113.223 5716.395,1112.217C5713.515,1111.21 5708.218,1112.65 5706.017,1110.074C5706.017,1110.074 5706.171,1097.334 5714.674,1099.889C5715.684,1100.193 5716.89,1102.343 5720.083,1103.893C5721.765,1104.709 5724.04,1104.947 5726.335,1104.947C5728.02,1104.947 5729.589,1104.525 5731.041,1103.682C5732.492,1102.839 5733.651,1101.657 5734.518,1100.135C5735.384,1098.613 5735.817,1091.252 5735.817,1089.332L5735.817,1087.716C5734.834,1089.402 5733.488,1090.76 5731.778,1091.79C5730.069,1092.821 5727.739,1093.336 5724.789,1093.336C5721.464,1093.336 5718.456,1092.493 5715.763,1090.807C5713.071,1089.121 5710.952,1086.862 5709.406,1084.029C5707.861,1081.196 5707.088,1078.023 5707.088,1074.511C5707.088,1070.999 5707.861,1067.814 5709.406,1064.958C5710.952,1062.101 5713.071,1059.842 5715.763,1058.18C5718.456,1056.517 5721.464,1055.686 5724.789,1055.686C5727.833,1055.686 5730.21,1056.225 5731.919,1057.302C5733.628,1058.379 5734.974,1059.807 5735.958,1061.586L5735.958,1056.599L5745.3,1056.599L5745.3,1089.894C5745.3,1093.64 5744.492,1102.512 5742.877,1105.228C5741.261,1107.944 5739.025,1110.039 5736.168,1111.514C5733.312,1112.989 5730.011,1113.727 5726.264,1113.727ZM5726.335,1084.696C5729.472,1084.696 5731.907,1083.713 5733.64,1081.746C5735.372,1079.779 5736.239,1077.367 5736.239,1074.511C5736.239,1071.654 5735.372,1069.243 5733.64,1067.276C5731.907,1065.309 5729.472,1064.326 5726.335,1064.326C5723.244,1064.326 5720.844,1065.309 5719.135,1067.276C5717.426,1069.243 5716.571,1071.654 5716.571,1074.511C5716.571,1076.337 5716.957,1078.023 5717.73,1079.568C5718.503,1081.114 5719.615,1082.354 5721.066,1083.291C5722.518,1084.228 5724.274,1084.696 5726.335,1084.696Z" style="fill:url(#_Linear1);fill-rule:nonzero;"/>
                            <g transform="matrix(1,0,0,1,0,-7.520517)">
                                <path d="M5685.897,1160.359C5682.598,1160.359 5679.541,1159.766 5676.728,1158.582C5673.915,1157.397 5671.461,1155.748 5669.367,1153.632C5667.273,1151.517 5665.645,1149.074 5664.481,1146.303C5663.318,1143.533 5662.736,1140.561 5662.736,1137.388C5662.736,1134.215 5663.297,1131.233 5664.418,1128.441C5665.539,1125.649 5667.125,1123.195 5669.177,1121.08C5671.229,1118.965 5673.672,1117.305 5676.506,1116.099C5679.34,1114.894 5682.471,1114.291 5685.897,1114.291C5689.535,1114.291 5692.655,1114.862 5695.257,1116.004C5697.858,1117.146 5700.153,1118.902 5702.142,1121.271L5695.86,1126.728C5693.195,1123.936 5689.874,1122.54 5685.897,1122.54C5683.063,1122.54 5680.599,1123.217 5678.505,1124.57C5676.411,1125.924 5674.793,1127.722 5673.651,1129.964C5672.508,1132.206 5671.937,1134.681 5671.937,1137.388C5671.937,1140.096 5672.508,1142.56 5673.651,1144.781C5674.793,1147.001 5676.421,1148.778 5678.537,1150.111C5680.652,1151.443 5683.169,1152.11 5686.088,1152.11C5688.245,1152.11 5690.149,1151.75 5691.799,1151.031C5693.448,1150.312 5694.929,1149.233 5696.24,1147.795L5702.713,1153.315C5701.021,1155.346 5698.768,1157.027 5695.955,1158.36C5693.142,1159.692 5689.789,1160.359 5685.897,1160.359Z" style="fill:url(#_Linear2);fill-rule:nonzero;"/>
                            </g>
                            <g transform="matrix(1,0,0,1,0,-7.520517)">
                                <path d="M5705.695,1159.534C5705.695,1159.534 5704.633,1125.001 5706.128,1116.317C5706.826,1112.269 5714.67,1107.434 5714.67,1107.434L5714.261,1131.106C5716.038,1127.553 5719.359,1125.776 5724.224,1125.776C5726.593,1125.776 5728.729,1126.326 5730.633,1127.426C5732.536,1128.526 5734.038,1130.091 5735.138,1132.121C5736.238,1134.152 5736.788,1136.563 5736.788,1139.355L5736.788,1159.534L5728.221,1159.534L5728.221,1141.449C5728.221,1138.573 5727.566,1136.489 5726.254,1135.199C5724.943,1133.909 5723.23,1133.264 5721.115,1133.264C5719.295,1133.264 5717.699,1133.909 5716.324,1135.199C5714.949,1136.489 5714.261,1138.573 5714.261,1141.449L5714.261,1159.534L5705.695,1159.534Z" style="fill:url(#_Linear3);fill-rule:nonzero;"/>
                            </g>
                            <g transform="matrix(1,0,0,1,0,-7.520517)">
                                <path d="M5757.347,1160.359C5753.963,1160.359 5750.98,1159.576 5748.4,1158.011C5745.819,1156.446 5743.821,1154.362 5742.403,1151.761C5740.986,1149.159 5740.278,1146.272 5740.278,1143.099C5740.278,1139.926 5741.018,1137.018 5742.499,1134.374C5743.979,1131.73 5745.999,1129.626 5748.559,1128.06C5751.118,1126.495 5754.047,1125.713 5757.347,1125.713C5760.647,1125.713 5763.555,1126.495 5766.072,1128.06C5768.589,1129.626 5770.556,1131.73 5771.973,1134.374C5773.39,1137.018 5774.099,1139.926 5774.099,1143.099C5774.099,1143.564 5774.078,1144.051 5774.035,1144.558C5773.993,1145.066 5773.93,1145.595 5773.845,1146.145L5749.161,1146.145C5749.627,1148.091 5750.568,1149.677 5751.985,1150.904C5753.402,1152.131 5755.19,1152.744 5757.347,1152.744C5759.208,1152.744 5760.826,1152.321 5762.201,1151.475C5763.576,1150.629 5764.644,1149.571 5765.406,1148.302L5772.068,1153.315C5770.757,1155.388 5768.79,1157.08 5766.167,1158.392C5763.544,1159.703 5760.604,1160.359 5757.347,1160.359ZM5757.22,1133.073C5755.19,1133.073 5753.455,1133.687 5752.017,1134.913C5750.578,1136.14 5749.627,1137.748 5749.161,1139.736L5765.469,1139.736C5765.004,1137.917 5764.041,1136.352 5762.582,1135.04C5761.122,1133.729 5759.335,1133.073 5757.22,1133.073Z" style="fill:url(#_Linear4);fill-rule:nonzero;"/>
                            </g>
                            <g transform="matrix(1,0,0,1,0,-7.520517)">
                                <path d="M5782.094,1120.049C5780.656,1120.049 5779.44,1119.552 5778.446,1118.557C5777.451,1117.563 5776.954,1116.368 5776.954,1114.972C5776.954,1113.619 5777.451,1112.445 5778.446,1111.451C5779.44,1110.456 5780.656,1109.959 5782.094,1109.959C5783.575,1109.959 5784.802,1110.456 5785.775,1111.451C5786.747,1112.445 5787.234,1113.619 5787.234,1114.972C5787.234,1116.411 5786.747,1117.616 5785.775,1118.589C5784.802,1119.562 5783.575,1120.049 5782.094,1120.049ZM5777.843,1159.534L5777.843,1122.777L5786.409,1122.777L5786.409,1159.534L5777.843,1159.534Z" style="fill:url(#_Linear5);fill-rule:nonzero;"/>
                            </g>
                            <g transform="matrix(1,0,0,1,0,-7.520517)">
                                <path d="M5806.524,1160.359C5803.521,1160.359 5800.781,1159.587 5798.307,1158.043C5795.832,1156.498 5793.865,1154.426 5792.405,1151.824C5790.946,1149.222 5790.216,1146.335 5790.216,1143.162C5790.216,1140.794 5790.639,1138.562 5791.485,1136.468C5792.331,1134.374 5793.495,1132.534 5794.975,1130.948C5796.456,1129.361 5798.18,1128.113 5800.147,1127.204C5802.114,1126.294 5804.24,1125.839 5806.524,1125.839C5809.401,1125.839 5811.643,1126.379 5813.25,1127.458C5814.858,1128.536 5816.106,1129.964 5816.994,1131.741L5816.994,1126.537L5825.497,1126.537L5825.497,1159.534L5817.184,1159.534L5817.184,1154.14C5816.296,1156.001 5815.038,1157.503 5813.409,1158.645C5811.78,1159.788 5809.485,1160.359 5806.524,1160.359ZM5807.92,1152.617C5809.824,1152.617 5811.463,1152.184 5812.838,1151.316C5814.213,1150.449 5815.281,1149.296 5816.042,1147.858C5816.804,1146.42 5817.184,1144.855 5817.184,1143.162C5817.184,1141.428 5816.804,1139.842 5816.042,1138.403C5815.281,1136.965 5814.213,1135.802 5812.838,1134.913C5811.463,1134.025 5809.824,1133.581 5807.92,1133.581C5806.101,1133.581 5804.504,1134.014 5803.129,1134.882C5801.754,1135.749 5800.686,1136.902 5799.925,1138.34C5799.163,1139.778 5798.783,1141.365 5798.783,1143.099C5798.783,1144.749 5799.163,1146.303 5799.925,1147.763C5800.686,1149.222 5801.754,1150.396 5803.129,1151.285C5804.504,1152.173 5806.101,1152.617 5807.92,1152.617Z" style="fill:url(#_Linear6);fill-rule:nonzero;"/>
                            </g>
                        </g>
                        <path d="M5768.409,1094.038C5764.663,1094.038 5761.362,1093.172 5758.505,1091.439C5755.649,1089.706 5753.436,1087.4 5751.867,1084.52C5750.299,1081.64 5749.514,1078.444 5749.514,1074.932C5749.514,1071.42 5750.334,1068.201 5751.973,1065.274C5753.612,1062.347 5755.848,1060.018 5758.681,1058.285C5761.514,1056.552 5764.757,1055.686 5768.409,1055.686C5772.062,1055.686 5775.281,1056.552 5778.068,1058.285C5780.854,1060.018 5783.031,1062.347 5784.6,1065.274C5786.169,1068.201 5786.953,1071.42 5786.953,1074.932C5786.953,1075.447 5786.93,1075.986 5786.883,1076.548C5786.836,1077.11 5786.766,1077.695 5786.672,1078.304L5759.348,1078.304C5759.863,1080.458 5760.905,1082.214 5762.474,1083.572C5764.043,1084.93 5766.021,1085.609 5768.409,1085.609C5770.47,1085.609 5772.261,1085.141 5773.783,1084.204C5775.305,1083.268 5776.487,1082.097 5777.33,1080.692L5784.706,1086.241C5783.254,1088.536 5781.076,1090.409 5778.173,1091.861C5775.27,1093.312 5772.015,1094.038 5768.409,1094.038ZM5768.269,1063.834C5766.021,1063.834 5764.101,1064.513 5762.509,1065.871C5760.917,1067.229 5759.863,1069.009 5759.348,1071.209L5777.4,1071.209C5776.885,1069.196 5775.82,1067.463 5774.204,1066.012C5772.589,1064.56 5770.61,1063.834 5768.269,1063.834Z" style="fill:rgb(235,235,235);fill-rule:nonzero;"/>
                        <path d="M5791.098,1093.125L5791.098,1056.599L5800.44,1056.599L5800.44,1061.938C5802.36,1057.817 5806.082,1055.756 5811.608,1055.756C5814.231,1055.756 5816.595,1056.365 5818.703,1057.583C5820.81,1058.8 5822.472,1060.533 5823.69,1062.78C5824.907,1065.028 5825.516,1067.697 5825.516,1070.788L5825.516,1093.125L5816.033,1093.125L5816.033,1073.106C5816.033,1069.922 5815.308,1067.615 5813.856,1066.187C5812.404,1064.759 5810.508,1064.045 5808.166,1064.045C5806.153,1064.045 5804.385,1064.759 5802.863,1066.187C5801.341,1067.615 5800.58,1069.922 5800.58,1073.106L5800.58,1093.125L5791.098,1093.125Z" style="fill:rgb(235,235,235);fill-rule:nonzero;"/>
                        <path d="M5847.432,1094.038C5844.107,1094.038 5841.075,1093.183 5838.335,1091.474C5835.596,1089.765 5833.418,1087.47 5831.803,1084.591C5830.187,1081.711 5829.379,1078.515 5829.379,1075.003C5829.379,1072.38 5829.848,1069.91 5830.784,1067.592C5831.721,1065.274 5833.009,1063.237 5834.648,1061.481C5836.286,1059.725 5838.195,1058.343 5840.372,1057.337C5842.55,1056.33 5844.903,1055.826 5847.432,1055.826C5850.569,1055.826 5853.027,1056.412 5854.807,1057.583C5856.586,1058.753 5857.968,1060.299 5858.951,1062.218L5858.951,1041.848L5868.434,1041.848L5868.434,1093.125L5859.232,1093.125L5859.232,1087.154C5858.249,1089.215 5856.856,1090.877 5855.053,1092.142C5853.25,1093.406 5850.709,1094.038 5847.432,1094.038ZM5848.977,1085.469C5851.084,1085.469 5852.899,1084.989 5854.421,1084.029C5855.943,1083.069 5857.125,1081.793 5857.968,1080.2C5858.811,1078.608 5859.232,1076.876 5859.232,1075.003C5859.232,1073.083 5858.811,1071.327 5857.968,1069.734C5857.125,1068.142 5855.943,1066.854 5854.421,1065.871C5852.899,1064.888 5851.084,1064.396 5848.977,1064.396C5846.963,1064.396 5845.195,1064.876 5843.674,1065.836C5842.152,1066.796 5840.969,1068.072 5840.126,1069.664C5839.283,1071.256 5838.862,1073.012 5838.862,1074.932C5838.862,1076.759 5839.283,1078.479 5840.126,1080.095C5840.969,1081.711 5842.152,1083.01 5843.674,1083.993C5845.195,1084.977 5846.963,1085.469 5848.977,1085.469Z" style="fill:rgb(235,235,235);fill-rule:nonzero;"/>
                        <path d="M5890.701,1094.038C5887.376,1094.038 5884.344,1093.183 5881.604,1091.474C5878.865,1089.765 5876.687,1087.47 5875.072,1084.591C5873.456,1081.711 5872.648,1078.515 5872.648,1075.003C5872.648,1072.38 5873.117,1069.91 5874.053,1067.592C5874.99,1065.274 5876.278,1063.237 5877.916,1061.481C5879.555,1059.725 5881.464,1058.343 5883.641,1057.337C5885.819,1056.33 5888.172,1055.826 5890.701,1055.826C5893.885,1055.826 5896.367,1056.424 5898.146,1057.618C5899.926,1058.812 5901.307,1060.392 5902.29,1062.359L5902.29,1056.599L5911.703,1056.599L5911.703,1093.125L5902.501,1093.125L5902.501,1087.154C5901.518,1089.215 5900.125,1090.877 5898.322,1092.142C5896.519,1093.406 5893.978,1094.038 5890.701,1094.038ZM5892.246,1085.469C5894.353,1085.469 5896.168,1084.989 5897.69,1084.029C5899.211,1083.069 5900.394,1081.793 5901.237,1080.2C5902.08,1078.608 5902.501,1076.876 5902.501,1075.003C5902.501,1073.083 5902.08,1071.327 5901.237,1069.734C5900.394,1068.142 5899.211,1066.854 5897.69,1065.871C5896.168,1064.888 5894.353,1064.396 5892.246,1064.396C5890.232,1064.396 5888.464,1064.876 5886.943,1065.836C5885.421,1066.796 5884.238,1068.072 5883.395,1069.664C5882.552,1071.256 5882.131,1073.012 5882.131,1074.932C5882.131,1076.759 5882.552,1078.479 5883.395,1080.095C5884.238,1081.711 5885.421,1083.01 5886.943,1083.993C5888.464,1084.977 5890.232,1085.469 5892.246,1085.469Z" style="fill:rgb(235,235,235);fill-rule:nonzero;"/>
                    </g>
                </g>
                <g transform="matrix(1.80035,0,0,1.80035,2901.772538,-68.562211)">
                    <g transform="matrix(1,0,0,1,-2.63461,-17.225422)">
                        <path d="M975.842,1015.861C944.811,981.329 927.521,936.449 927.521,889.787L927.521,703.189L1002.344,703.189L1002.344,727.888L951.987,727.888L951.987,892.504C951.987,932.064 966.159,970.162 991.69,1000.013L1082.78,908.923L1099.933,926.076L1008.766,1017.242C1038.781,1043.383 1077.34,1057.913 1117.397,1057.913L1282.513,1057.913L1282.513,750.33L1143.318,889.524C1143.661,891.112 1143.841,892.76 1143.841,894.449C1143.841,907.293 1133.414,917.721 1120.57,917.721C1107.726,917.721 1097.298,907.293 1097.298,894.449C1097.298,881.605 1107.726,871.177 1120.57,871.177C1122.646,871.177 1124.659,871.45 1126.576,871.961L1270.649,727.888L1233.505,727.888L1233.505,703.189L1307.527,703.189L1307.527,1078.413L1116.147,1078.413C1070.873,1078.413 1027.278,1062.137 993.183,1032.825L947.595,1078.413L930.442,1061.261L975.842,1015.861Z" style="fill:url(#_Linear7);"/>
                    </g>
                    <g transform="matrix(0.828268,0,0,0.828268,76.264908,133.383514)">
                        <circle cx="1120.57" cy="894.449" r="23.272" style="fill:url(#_Linear8);"/>
                    </g>
                    <g transform="matrix(0.828268,0,0,0.828268,186.757192,24.998446)">
                        <circle cx="1120.57" cy="894.449" r="23.272" style="fill:url(#_Linear9);"/>
                    </g>
                    <g transform="matrix(0.604757,0,0,0.604757,517.732819,415.107945)">
                        <circle cx="1120.57" cy="894.449" r="23.272" style="fill:url(#_Linear10);"/>
                    </g>
                    <g transform="matrix(0.604757,0,0,0.604757,358.00971,252.139162)">
                        <circle cx="1120.57" cy="894.449" r="23.272" style="fill:url(#_Linear11);"/>
                    </g>
                    <g transform="matrix(1,0,0,1.006289,0,-5.601699)">
                        <rect x="1209.479" y="856.359" width="33.996" height="34.317" style="fill:url(#_Linear12);"/>
                    </g>
                    <g transform="matrix(1,0,0,1.006289,-111.588018,103.72346)">
                        <rect x="1209.479" y="856.359" width="33.996" height="34.317" style="fill:url(#_Linear13);"/>
                    </g>
                    <g transform="matrix(1.26624,0,0,1.007072,-276.11573,-5.218516)">
                        <path d="M1041.052,661.423L1041.052,724.95C1041.052,732.092 1036.441,737.89 1030.761,737.89C1025.081,737.89 1020.47,732.092 1020.47,724.95L1020.47,661.423C1020.47,654.281 1025.081,648.483 1030.761,648.483C1036.441,648.483 1041.052,654.281 1041.052,661.423Z" style="fill:url(#_Linear14);"/>
                    </g>
                    <g transform="matrix(1.26624,0,0,1.007072,-104.663595,-5.218516)">
                        <path d="M1041.052,661.423L1041.052,724.95C1041.052,732.092 1036.441,737.89 1030.761,737.89C1025.081,737.89 1020.47,732.092 1020.47,724.95L1020.47,661.423C1020.47,654.281 1025.081,648.483 1030.761,648.483C1036.441,648.483 1041.052,654.281 1041.052,661.423Z" style="fill:url(#_Linear15);"/>
                    </g>
                    <rect x="1058.974" y="685.963" width="111.642" height="24.699" style="fill:url(#_Linear16);"/>
                </g>
            </g>
        </g>
    </g>
    <defs>
        <linearGradient id="_Linear1" x1="0" y1="0" x2="1" y2="0" gradientUnits="userSpaceOnUse" gradientTransform="matrix(0,96.796542,-96.796542,0,5736.787738,1068.90343)"><stop offset="0" style="stop-color:rgb(231,182,111);stop-opacity:1"/><stop offset="1" style="stop-color:rgb(239,162,50);stop-opacity:1"/></linearGradient>
        <linearGradient id="_Linear2" x1="0" y1="0" x2="1" y2="0" gradientUnits="userSpaceOnUse" gradientTransform="matrix(0,96.796542,-96.796542,0,5736.787738,1076.423947)"><stop offset="0" style="stop-color:rgb(231,182,111);stop-opacity:1"/><stop offset="1" style="stop-color:rgb(239,162,50);stop-opacity:1"/></linearGradient>
        <linearGradient id="_Linear3" x1="0" y1="0" x2="1" y2="0" gradientUnits="userSpaceOnUse" gradientTransform="matrix(0,96.796542,-96.796542,0,5736.787738,1076.423947)"><stop offset="0" style="stop-color:rgb(231,182,111);stop-opacity:1"/><stop offset="1" style="stop-color:rgb(239,162,50);stop-opacity:1"/></linearGradient>
        <linearGradient id="_Linear4" x1="0" y1="0" x2="1" y2="0" gradientUnits="userSpaceOnUse" gradientTransform="matrix(0,96.796542,-96.796542,0,5736.787738,1076.423947)"><stop offset="0" style="stop-color:rgb(231,182,111);stop-opacity:1"/><stop offset="1" style="stop-color:rgb(239,162,50);stop-opacity:1"/></linearGradient>
        <linearGradient id="_Linear5" x1="0" y1="0" x2="1" y2="0" gradientUnits="userSpaceOnUse" gradientTransform="matrix(0,96.796542,-96.796542,0,5736.787738,1076.423947)"><stop offset="0" style="stop-color:rgb(231,182,111);stop-opacity:1"/><stop offset="1" style="stop-color:rgb(239,162,50);stop-opacity:1"/></linearGradient>
        <linearGradient id="_Linear6" x1="0" y1="0" x2="1" y2="0" gradientUnits="userSpaceOnUse" gradientTransform="matrix(0,96.796542,-96.796542,0,5736.787738,1076.423947)"><stop offset="0" style="stop-color:rgb(231,182,111);stop-opacity:1"/><stop offset="1" style="stop-color:rgb(239,162,50);stop-opacity:1"/></linearGradient>
        <linearGradient id="_Linear7" x1="0" y1="0" x2="1" y2="0" gradientUnits="userSpaceOnUse" gradientTransform="matrix(-225.768026,441.707004,-441.707004,-225.768026,1284.527314,702.171656)"><stop offset="0" style="stop-color:rgb(227,187,124);stop-opacity:1"/><stop offset="1" style="stop-color:rgb(247,160,54);stop-opacity:1"/></linearGradient>
        <linearGradient id="_Linear8" x1="0" y1="0" x2="1" y2="0" gradientUnits="userSpaceOnUse" gradientTransform="matrix(-272.578428,533.289867,-533.289867,-272.578428,1455.600843,665.922901)"><stop offset="0" style="stop-color:rgb(227,187,124);stop-opacity:1"/><stop offset="1" style="stop-color:rgb(247,160,54);stop-opacity:1"/></linearGradient>
        <linearGradient id="_Linear9" x1="0" y1="0" x2="1" y2="0" gradientUnits="userSpaceOnUse" gradientTransform="matrix(-272.578428,533.289867,-533.289867,-272.578428,1322.199255,796.780365)"><stop offset="0" style="stop-color:rgb(227,187,124);stop-opacity:1"/><stop offset="1" style="stop-color:rgb(247,160,54);stop-opacity:1"/></linearGradient>
        <linearGradient id="_Linear10" x1="0" y1="0" x2="1" y2="0" gradientUnits="userSpaceOnUse" gradientTransform="matrix(-373.319996,730.387112,-730.387112,-373.319996,1263.580897,446.192628)"><stop offset="0" style="stop-color:rgb(227,187,124);stop-opacity:1"/><stop offset="1" style="stop-color:rgb(247,160,54);stop-opacity:1"/></linearGradient>
        <linearGradient id="_Linear11" x1="0" y1="0" x2="1" y2="0" gradientUnits="userSpaceOnUse" gradientTransform="matrix(-373.319996,730.387112,-730.387112,-373.319996,1527.691947,715.670579)"><stop offset="0" style="stop-color:rgb(227,187,124);stop-opacity:1"/><stop offset="1" style="stop-color:rgb(247,160,54);stop-opacity:1"/></linearGradient>
        <linearGradient id="_Linear12" x1="0" y1="0" x2="1" y2="0" gradientUnits="userSpaceOnUse" gradientTransform="matrix(-225.768026,438.946351,-441.707004,-224.356984,1281.892704,686.232032)"><stop offset="0" style="stop-color:rgb(227,187,124);stop-opacity:1"/><stop offset="1" style="stop-color:rgb(247,160,54);stop-opacity:1"/></linearGradient>
        <linearGradient id="_Linear13" x1="0" y1="0" x2="1" y2="0" gradientUnits="userSpaceOnUse" gradientTransform="matrix(-225.768026,438.946351,-441.707004,-224.356984,1393.480722,577.590151)"><stop offset="0" style="stop-color:rgb(227,187,124);stop-opacity:1"/><stop offset="1" style="stop-color:rgb(247,160,54);stop-opacity:1"/></linearGradient>
        <linearGradient id="_Linear14" x1="0" y1="0" x2="1" y2="0" gradientUnits="userSpaceOnUse" gradientTransform="matrix(-178.298005,438.605096,-348.833618,-224.18256,1230.42133,685.318035)"><stop offset="0" style="stop-color:rgb(227,187,124);stop-opacity:1"/><stop offset="1" style="stop-color:rgb(247,160,54);stop-opacity:1"/></linearGradient>
        <linearGradient id="_Linear15" x1="0" y1="0" x2="1" y2="0" gradientUnits="userSpaceOnUse" gradientTransform="matrix(-178.298005,438.605096,-348.833618,-224.18256,1095.018748,685.318035)"><stop offset="0" style="stop-color:rgb(227,187,124);stop-opacity:1"/><stop offset="1" style="stop-color:rgb(247,160,54);stop-opacity:1"/></linearGradient>
        <linearGradient id="_Linear16" x1="0" y1="0" x2="1" y2="0" gradientUnits="userSpaceOnUse" gradientTransform="matrix(-225.768026,441.707004,-441.707004,-225.768026,1281.892704,684.946234)"><stop offset="0" style="stop-color:rgb(227,187,124);stop-opacity:1"/><stop offset="1" style="stop-color:rgb(247,160,54);stop-opacity:1"/></linearGradient>
    </defs>
</svg>
